<svg xmlns="http://www.w3.org/2000/svg" xmlns:xlink="http://www.w3.org/1999/xlink" width="64" height="64" viewBox="0 0 64 64">
    <defs>
        <circle id="a" cx="32" cy="32" r="32"/>
    </defs>
    <g fill="none" fill-rule="evenodd">
        <circle cx="32" cy="32" r="32" fill="#F5F5F6" fill-rule="nonzero"/>
        <rect width="64" height="64" fill="#F5F5F6" fill-rule="nonzero" rx="32"/>
        <mask id="b" fill="#fff">
            <use xlink:href="#a"/>
        </mask>
        <path stroke="#616871" stroke-linecap="round" stroke-linejoin="round" stroke-width="2" d="M32 46V24v22zM18 24h28v7H18z" mask="url(#b)"/>
        <path stroke="#616871" stroke-linecap="round" stroke-linejoin="round" stroke-width="2" d="M19 31v16h26V31z" mask="url(#b)"/>
        <path stroke="#616871" stroke-width="2" d="M34.498 24.698c1.528-1.367 2.528-2.7 3-4 .707-1.95-1.343-3-3-3s-3.707 1.05-3 3c.471 1.3 1.471 2.633 3 4z" mask="url(#b)" transform="rotate(45 34.498 21.198)"/>
        <path stroke="#616871" stroke-width="2" d="M30.072 24.085c1.135-1.134 1.899-2.245 2.293-3.332.707-1.95-1.343-3-3-3s-3.707 1.05-3 3c.395 1.087 1.159 2.198 2.293 3.332a1 1 0 0 0 1.414 0z" mask="url(#b)" transform="scale(-1 1) rotate(45 0 -49.829)"/>
    </g>
</svg>
