<svg xmlns="http://www.w3.org/2000/svg" width="64" height="64" viewBox="0 0 64 64">
    <g fill="none" fill-rule="evenodd">
        <rect width="64" height="64" fill="#F5F5F6" rx="32"/>
        <path stroke="#616871" stroke-width="2" d="M19.985 20.386a7.95 7.95 0 0 0-2.81 2.493c-.738 1.057-1.285 2.313-1.64 3.768-.357 1.456-.535 3.047-.535 4.773 0 1.572.171 3.086.514 4.541.343 1.456.877 2.738 1.602 3.846a8.397 8.397 0 0 0 2.79 2.666c1.134.67 2.492 1.005 4.074 1.005 1.583 0 2.94-.328 4.075-.985a8.328 8.328 0 0 0 2.809-2.667c.738-1.12 1.279-2.402 1.622-3.845A19.67 19.67 0 0 0 33 31.42c0-1.675-.178-3.24-.534-4.696-.356-1.456-.91-2.719-1.662-3.788a8.237 8.237 0 0 0-2.828-2.531c-1.134-.619-2.466-.928-3.996-.928-1.53 0-2.861.303-3.995.908z"/>
        <text fill="#616871" font-family="NeueHaasUnicaW1G-Medium, Neue Haas Unica W1G" font-size="17" font-weight="400" transform="translate(15 18)">
            <tspan x="24" y="20">₽</tspan>
        </text>
    </g>
</svg>
